#!OML:ASF H:\Terrain\Patient Classification 1\Animal1\Tuesday\Animal1.ASF
:FULLY-SPECIFIED
:DEGREES
1505
root 20.8736 16.2684 -14.3097 -350.651 1.01037 725.866
lowerback -4.62138 -0.258955 -4.18757
upperback -5.70826 -0.262814 -0.345221
thorax -3.2912 0.0181656 1.98396
lowerneck -5.80925 -1.9417 -5.12922
upperneck 26.7998 -5.20342 12.465
head 9.84473 -1.64755 4.77912
rclavicle 3.8763e-015 1.59028e-015
rhumerus -47.4577 13.2136 -84.3139
rradius 23.2758
rwrist -8.59056
rhand -19.5246 26.0441
rfingers 7.12502
rthumb 6.79875 -3.8267
lclavicle 3.8763e-015 1.59028e-015
lhumerus -43.2062 7.65266 76.4507
lradius 38.6211
lwrist -26.2823
lhand 2.57538 43.3505
lfingers 7.12502
lthumb 28.0547 71.2729
rfemur -37.9954 -2.73173 23.1447
rtibia 71.4003
rfoot -2.58201 -11.8173
rtoes -9.63083
lfemur -13.5402 -20.4693 -27.3909
ltibia 22.1906
lfoot -13.4916 13.523
ltoes -14.2229
1506
root 20.886 16.2586 -14.1918 -350.59 0.944036 725.776
lowerback -4.47981 -0.436111 -4.33185
upperback -5.59105 -0.496489 -0.153912
thorax -3.23134 -0.0925424 2.25902
lowerneck -6.60034 -1.88299 -5.20411
upperneck 27.0379 -5.10172 12.3905
head 10.0763 -1.58546 4.78405
rclavicle -1.61513e-014 8.74653e-015
rhumerus -47.3157 13.3199 -83.9369
rradius 23.7208
rwrist -9.59154
rhand -20.2337 26.5425
rfingers 7.12502
rthumb 6.11416 -3.34927
lclavicle -1.61513e-014 8.74653e-015
lhumerus -42.7801 8.01628 76.5781
lradius 39.0305
lwrist -26.8174
lhand 3.67119 42.5449
lfingers 7.12502
lthumb 29.1017 70.2911
rfemur -38.9364 -2.42215 23.365
rtibia 69.9534
rfoot -3.11734 -11.8522
rtoes -6.53948
lfemur -13.1616 -20.5791 -27.4825
ltibia 22.2851
lfoot -13.2792 14.0481
ltoes -16.8158
1507
root 20.8939 16.2585 -14.0709 -350.557 0.805629 725.81
lowerback -4.34604 -0.511837 -4.62562
upperback -5.79628 -0.603566 -0.0939549
thorax -3.51332 -0.124345 2.48558
lowerneck -5.97236 -1.84193 -5.07012
upperneck 26.857 -5.02325 12.2475
head 9.87097 -1.57616 4.70845
rclavicle 8.44835e-016 -7.95139e-015
rhumerus -48.0396 13.1315 -83.7178
rradius 24.3707
rwrist -10.5274
rhand -20.1358 26.6629
rfingers 7.12502
rthumb 6.20868 -3.22611
lclavicle 8.44835e-016 -7.95139e-015
lhumerus -42.9611 7.30681 77.142
lradius 39.6504
lwrist -26.3251
lhand 3.54918 42.5657
lfingers 7.12502
lthumb 28.9852 70.332
rfemur -39.7814 -1.91833 23.3547
rtibia 68.3385
rfoot -4.04487 -11.8334
rtoes -0.840214
lfemur -12.6932 -20.7269 -27.7011
ltibia 22.2493
lfoot -13.702 14.3749
ltoes -17.3943
1508
root 20.9023 16.2618 -13.9457 -350.444 0.733113 725.876
lowerback -4.23184 -0.627514 -4.83805
upperback -5.68155 -0.756413 -0.0357651
thorax -3.44412 -0.195121 2.6633
lowerneck -6.60157 -1.86729 -5.08784
upperneck 26.7822 -5.04023 12.2489
head 9.97038 -1.56819 4.70598
rclavicle -7.95139e-015 -9.93923e-015
rhumerus -47.7371 12.7792 -83.2206
rradius 24.5654
rwrist -11.015
rhand -19.5929 26.4892
rfingers 7.12502
rthumb 6.73279 -3.38373
lclavicle -7.95139e-015 -9.93923e-015
lhumerus -42.3239 6.87276 77.7144
lradius 40.0615
lwrist -25.9866
lhand 3.27699 42.3032
lfingers 7.12502
lthumb 28.7252 70.1139
rfemur -40.5019 -1.4879 23.2521
rtibia 66.4504
rfoot -5.12089 -12.0507
rtoes 3.61439
lfemur -12.1447 -20.8884 -27.9304
ltibia 21.9919
lfoot -14.9227 14.0763
ltoes -12.5051
1509
root 20.9128 16.2599 -13.8136 -350.34 0.854421 725.883
lowerback -4.28931 -0.789305 -4.90267
upperback -5.63105 -0.965819 -0.00523741
thorax -3.34091 -0.300322 2.72702
lowerneck -6.77705 -1.86609 -5.09884
upperneck 26.6297 -5.05697 12.3885
head 9.95529 -1.56181 4.75075
rclavicle 2.23633e-015 5.56597e-015
rhumerus -47.6274 12.1049 -82.6499
rradius 24.6352
rwrist -11.0158
rhand -19.4172 26.8408
rfingers 7.12502
rthumb 6.90242 -3.02672
lclavicle 2.23633e-015 5.56597e-015
lhumerus -41.8911 6.43396 78.1613
lradius 40.3591
lwrist -25.5796
lhand 2.39136 41.8444
lfingers 7.12502
lthumb 27.8788 69.7955
rfemur -40.9314 -1.21727 23.1765
rtibia 64.2842
rfoot -6.54443 -12.276
rtoes 7.10349
lfemur -11.4272 -21.1336 -28.1172
ltibia 21.5711
lfoot -15.6113 13.9112
ltoes -9.3309
